<svg width="101" height="64" viewBox="0 0 101 64" fill="none" xmlns="http://www.w3.org/2000/svg">
<path d="M27.3359 45.5913L33.1952 39.732C34.965 37.9622 37.8345 37.9622 39.6043 39.732L41.1808 41.3085C43.3202 43.4479 46.9151 42.9302 48.3639 40.274L55.469 27.248C57.1011 24.2559 61.3278 24.0684 63.2184 26.9043L72.6551 41.0594M31.8679 54.6551H68.1232C70.6261 54.6551 72.6551 52.6261 72.6551 50.1232V13.8679C72.6551 11.3649 70.6261 9.33594 68.1232 9.33594H31.8679C29.3649 9.33594 27.3359 11.3649 27.3359 13.8679V50.1232C27.3359 52.6261 29.3649 54.6551 31.8679 54.6551ZM46.5521 24.0647C46.5521 27.1933 44.0158 29.7296 40.8872 29.7296C37.7585 29.7296 35.2223 27.1933 35.2223 24.0647C35.2223 20.936 37.7585 18.3998 40.8872 18.3998C44.0158 18.3998 46.5521 20.936 46.5521 24.0647Z" stroke="#B2ADAD" stroke-width="2" stroke-linecap="round" stroke-linejoin="round"/>
</svg>
